<svg width="48" height="48" viewBox="0 0 48 48" fill="none" xmlns="http://www.w3.org/2000/svg">
<path fill-rule="evenodd" clip-rule="evenodd" d="M12.015 18.0211C12.0183 14.7192 14.689 12.0405 17.9909 12.0272L29.9728 11.9791C33.2959 11.9657 35.9969 14.6559 35.9969 17.979V30.0091C35.9969 33.3204 33.3143 36.0057 30.0029 36.0091L18.009 36.0211C14.6905 36.0245 11.9996 33.3335 12.0029 30.0151L12.015 18.0211ZM29.7801 33.8585C31.9892 33.8585 33.7801 32.0676 33.7801 29.8585V18.2008C33.7801 15.9897 31.9862 14.198 29.7752 14.2008L18.1559 14.215C15.9506 14.2178 14.1635 16.0048 14.1608 18.2101L14.1465 29.8536C14.1438 32.0646 15.9354 33.8585 18.1465 33.8585H29.7801ZM23.991 18.5893C24.5991 18.5893 25.092 19.0822 25.0921 19.6902L25.0926 22.916H28.3542C28.9623 22.916 29.4553 23.409 29.4553 24.0171C29.4553 24.6253 28.9623 25.1183 28.3542 25.1183H25.0928L25.0932 28.3705C25.0933 28.9793 24.5998 29.4729 23.9909 29.4729C23.3821 29.4729 22.8886 28.9793 22.8886 28.3704L22.8891 25.1183H19.6283C19.0202 25.1183 18.5272 24.6253 18.5272 24.0171C18.5272 23.409 19.0202 22.916 19.6283 22.916H22.8895L22.8899 19.6903C22.89 19.0822 23.3829 18.5893 23.991 18.5893Z" fill="white"/>
</svg>
