<svg width="16" height="16" viewBox="0 0 16 16" fill="none" xmlns="http://www.w3.org/2000/svg">
<rect width="16" height="16" rx="8" fill="white"/>
<path d="M7.9269 6.28062L9.43679 7.80343C9.43679 7.75431 9.43679 7.75431 9.43679 7.70518C9.43679 6.87008 8.80361 6.23149 7.9756 6.23149C7.97561 6.28062 7.97561 6.28062 7.9269 6.28062ZM5.83252 6.6736L6.56312 7.41046C6.56312 7.55783 6.56312 7.65608 6.56312 7.75432C6.56312 8.58941 7.19629 9.228 8.02431 9.228C8.12172 9.228 8.21914 9.228 8.36525 9.17887L9.09584 9.91572C8.7549 10.1122 8.41395 10.2105 8.02429 10.2105C6.66051 10.2105 5.58899 9.12976 5.58899 7.75432C5.589 7.36133 5.68641 7.01747 5.83252 6.6736ZM3.15369 3.97186L4.27393 5.10168L4.46876 5.29817C3.64076 5.93677 3.00756 6.77185 2.66663 7.75431C3.49463 9.91571 5.589 11.4385 8.02432 11.4385C8.75491 11.4385 9.48552 11.2911 10.1674 11.0455L10.3622 11.242L11.7747 12.6666L12.4079 12.028L3.78687 3.33325L3.15369 3.97186ZM8.02431 5.29817C9.38809 5.29817 10.4596 6.37888 10.4596 7.75431C10.4596 8.04905 10.4109 8.3929 10.2648 8.63852L11.6773 10.0631C12.4079 9.42448 12.9923 8.63853 13.3333 7.75431C12.5053 5.5929 10.4109 4.07009 7.9756 4.07009C7.2937 4.07009 6.66053 4.21745 6.02734 4.41394L7.09888 5.49465C7.39113 5.34729 7.73207 5.29817 8.02431 5.29817Z" fill="black"/>
</svg>
