<svg width="20" height="20" viewBox="0 0 20 20" fill="none" xmlns="http://www.w3.org/2000/svg">
<path d="M8.63801 4.2743C9.29702 3.61529 10.3655 3.61529 11.0245 4.2743L13.4474 6.69719C14.1064 7.3562 14.1064 8.42466 13.4474 9.08367L8.96751 13.5635C8.44007 14.091 7.7247 14.3873 6.97878 14.3873H4.45938C3.83806 14.3873 3.33437 13.8836 3.33437 13.2623V10.7429C3.33437 9.99698 3.63069 9.28161 4.15814 8.75417L8.63801 4.2743ZM5.2884 9.83581C5.06438 10.0482 4.9375 10.3434 4.9375 10.6521V12.1373C4.9375 12.448 5.18934 12.6998 5.5 12.6998H6.99095C7.29629 12.6998 7.58851 12.5757 7.80052 12.356L11.7326 8.28089C11.9429 8.063 11.9429 7.7178 11.7327 7.49985L10.2185 5.92947C10.0041 5.70716 9.65058 5.69926 9.42649 5.91176L5.2884 9.83581ZM3.25 16.0748C3.25 15.6088 3.62776 15.2311 4.09375 15.2311H4.9375C5.40349 15.2311 5.78125 15.6088 5.78125 16.0748C5.78125 16.5408 5.40349 16.9186 4.9375 16.9186H4.09375C3.62776 16.9186 3.25 16.5408 3.25 16.0748ZM6.625 16.0748C6.625 15.6088 7.00276 15.2311 7.46875 15.2311H10C10.466 15.2311 10.8438 15.6088 10.8438 16.0748C10.8438 16.5408 10.466 16.9186 10 16.9186H7.46875C7.00276 16.9186 6.625 16.5408 6.625 16.0748ZM11.6875 16.0748C11.6875 15.6088 12.0653 15.2311 12.5313 15.2311H15.9063C16.3722 15.2311 16.75 15.6088 16.75 16.0748C16.75 16.5408 16.3722 16.9186 15.9063 16.9186H12.5313C12.0653 16.9186 11.6875 16.5408 11.6875 16.0748Z" fill="#00D1FF"/>
</svg>
