<svg width="23" height="16" viewBox="0 0 23 16" fill="none" xmlns="http://www.w3.org/2000/svg">
<path d="M9.3623 6.00318H7.17246V3.66242C7.17246 3.15287 7.28253 2.67781 7.50267 2.23726C7.72282 1.79671 8.02696 1.40924 8.41511 1.07484C8.80325 0.740446 9.26092 0.477707 9.7881 0.286624C10.3153 0.0955414 10.8917 -1.03773e-08 11.5174 0C12.0735 0 12.6094 0.0955414 13.125 0.286624C13.6406 0.477707 14.0983 0.740446 14.498 1.07484C14.8977 1.40924 15.2164 1.79671 15.4539 2.23726C15.6914 2.67781 15.8102 3.15287 15.8102 3.66242V6.00318H13.7072V4.10828C13.7072 3.43949 13.5045 2.92197 13.0989 2.55573C12.6934 2.18949 12.143 2.00637 11.4479 2.00637C10.8222 2.00637 10.3182 2.18949 9.93583 2.55573C9.55348 2.92197 9.3623 3.43949 9.3623 4.10828V6.00318ZM16.8529 6.9586C17.1658 6.9586 17.4352 7.0621 17.6611 7.26911C17.887 7.47611 18 7.72293 18 8.00955V12.9459C18 13.2325 17.945 13.5005 17.8349 13.75C17.7248 13.9995 17.5742 14.2171 17.383 14.4029C17.1918 14.5886 16.9659 14.7346 16.7052 14.8408C16.4445 14.9469 16.1578 15 15.8449 15H7.06818C6.75535 15 6.47148 14.9469 6.21658 14.8408C5.96168 14.7346 5.74443 14.5939 5.56484 14.4188C5.38525 14.2436 5.24621 14.0393 5.14773 13.8057C5.04924 13.5722 5 13.3227 5 13.0573V8.00955C5 7.72293 5.11007 7.47611 5.33021 7.26911C5.55036 7.0621 5.81684 6.9586 6.12968 6.9586H7.17246H9.3623H13.7072H15.8102H16.8529V6.9586Z" fill="white"/>
</svg>
