<svg width="20" height="20" viewBox="0 0 20 20" fill="none" xmlns="http://www.w3.org/2000/svg">
<path d="M14.8 13.6H13.6V14.8C13.6 15.46 13.06 16 12.4 16H5.2C4.54 16 4 15.46 4 14.8V7.6C4 6.94 4.54 6.4 5.2 6.4H6.4V5.2C6.4 4.54 6.94 4 7.6 4H14.8C15.46 4 16 4.54 16 5.2V12.4C16 13.06 15.46 13.6 14.8 13.6ZM5.8 7.6C5.44 7.6 5.2 7.84 5.2 8.2V14.2C5.2 14.56 5.44 14.8 5.8 14.8H11.8C12.16 14.8 12.4 14.56 12.4 14.2V8.2C12.4 7.84 12.16 7.6 11.8 7.6H5.8ZM14.8 5.8C14.8 5.44 14.56 5.2 14.2 5.2H8.2C7.84 5.2 7.6 5.44 7.6 5.8V6.4H12.4C13.06 6.4 13.6 6.94 13.6 7.6V12.4H14.2C14.56 12.4 14.8 12.16 14.8 11.8V5.8Z" fill="white"/>
</svg>
