<svg width="16" height="16" viewBox="0 0 16 16" fill="none" xmlns="http://www.w3.org/2000/svg">
<rect width="16" height="16" rx="8" fill="white"/>
<path d="M8 4.66675C5.72697 4.66675 3.77404 6.04671 3 8.00008C3.77404 9.95345 5.72697 11.3334 8 11.3334C10.273 11.3334 12.226 9.95345 13 8.00008C12.226 6.04671 10.273 4.66675 8 4.66675ZM8 10.2201C6.7263 10.2201 5.72697 9.23948 5.72697 8.00008C5.72697 6.75287 6.7263 5.78009 8 5.78009C9.2737 5.78009 10.273 6.76068 10.273 8.00008C10.273 9.24729 9.2737 10.2201 8 10.2201ZM8 6.66697C7.22708 6.66697 6.63373 7.24707 6.63373 8.00008C6.63373 8.75309 7.22708 9.33319 8 9.33319C8.77292 9.33319 9.36627 8.75309 9.36627 8.00008C9.36627 7.24707 8.77292 6.66697 8 6.66697Z" fill="black"/>
</svg>
