<svg width="24" height="24" viewBox="0 0 24 24" fill="none" xmlns="http://www.w3.org/2000/svg">
<g clip-path="url(#clip0_28_794)">
<path d="M12 0C5.35385 0 0 5.35385 0 12C0 18.6462 5.35385 24 12 24C18.6462 24 24 18.6462 24 12C24 5.35385 18.6462 0 12 0ZM17.8154 8.58462C17.7231 8.67692 17.7231 8.76923 17.6308 8.76923C17.4462 8.95385 17.2615 9.04615 17.0769 9.13846C16.9846 9.13846 16.9846 9.23077 16.9846 9.32308C17.0769 10.3385 16.8923 11.3538 16.5231 12.3692C15.8769 14.1231 14.4923 15.5077 12.8308 16.3385C11.4462 17.1692 9.78462 17.4462 8.30769 17.0769C7.56923 16.9846 6.92308 16.7077 6.36923 16.3385L6.27692 16.2462C6.27692 16.1538 6.36923 16.0615 6.46154 16.0615C6.92308 16.0615 7.38462 15.9692 7.84615 15.7846C8.30769 15.6 8.76923 15.3231 9.13846 15.0462L9.23077 14.9538C9.23077 14.8615 9.23077 14.7692 9.13846 14.7692C8.76923 14.6769 8.49231 14.4923 8.21538 14.3077C7.84615 14.1231 7.56923 13.7538 7.38462 13.3846V13.2923C7.38462 13.2 7.47692 13.1077 7.56923 13.1077H7.84615C7.93846 13.1077 7.93846 13.1077 7.93846 13.0154C8.03077 12.9231 7.93846 12.8308 7.84615 12.7385C7.47692 12.5538 7.2 12.2769 6.92308 12C6.55385 11.6308 6.36923 11.1692 6.36923 10.7077V10.6154C6.36923 10.5231 6.55385 10.5231 6.55385 10.5231C6.64615 10.5231 6.73846 10.6154 6.83077 10.6154H7.01538C7.10769 10.6154 7.10769 10.6154 7.2 10.5231C7.29231 10.4308 7.29231 10.3385 7.2 10.2462C6.83077 9.87692 6.55385 9.41539 6.46154 8.86154C6.36923 8.4 6.46154 7.84615 6.64615 7.38462V7.29231C6.46154 7.38462 6.55385 7.38462 6.64615 7.47692C7.29231 8.12308 7.93846 8.67692 8.76923 9.13846C9.69231 9.6 10.7077 9.87692 11.7231 9.87692C11.8154 9.87692 11.9077 9.78462 11.9077 9.69231C11.9077 9.13846 12.0923 7.29231 13.7538 6.83077C14.5846 6.55385 15.6 6.73846 16.2462 7.47692C16.2462 7.47692 16.3385 7.56923 16.4308 7.56923C16.6154 7.56923 16.8 7.47692 17.0769 7.47692C17.2615 7.38462 17.4462 7.38462 17.6308 7.29231H17.8154C17.9077 7.29231 17.9077 7.47692 17.9077 7.56923C17.8154 7.75385 17.6308 7.93846 17.4462 8.12308L17.3538 8.21538C17.2615 8.21538 17.2615 8.30769 17.2615 8.4C17.2615 8.49231 17.3538 8.58462 17.4462 8.58462C17.5385 8.58462 17.6308 8.58462 17.8154 8.49231H18C17.9077 8.4 17.9077 8.58462 17.8154 8.58462Z" fill="white"/>
</g>
<defs>
<clipPath id="clip0_28_794">
<rect width="24" height="24" fill="white"/>
</clipPath>
</defs>
</svg>
