<svg width="5" height="7" viewBox="0 0 5 7" fill="none" xmlns="http://www.w3.org/2000/svg">
<path d="M3.00971 4.33772L4.02913 6.3161C4.07767 6.42724 4.02913 6.56061 3.90777 6.60507L3.03398 6.98296C2.91262 7.02742 2.76699 6.98296 2.71845 6.87182L1.67476 4.84899L0.412621 6.00489C0.364077 6.04935 0.315534 6.07158 0.242718 6.07158C0.0970871 6.07158 0 5.98266 0 5.84929V0.225367C0 0.180909 0.0242716 0.114222 0.0728153 0.0697642C0.169903 -0.0191516 0.315534 -0.0191516 0.412621 0.0475352L4.92718 3.80423C4.97573 3.84868 5 3.89314 5 3.95983C5 4.0932 4.90291 4.18212 4.78155 4.20435L3.00971 4.33772Z" fill="#0047FF"/>
</svg>
