<svg width="14" height="14" viewBox="0 0 14 14" xmlns="http://www.w3.org/2000/svg">
<path fill-rule="evenodd" clip-rule="evenodd" d="M4.19645 5.88263L6.86117 3.16468L9.52698 5.88484L11.0766 4.3025L6.86117 0L2.64574 4.3014L4.19645 5.88263ZM0 7.00023L1.55015 5.41847L3.1003 7.00023L1.55015 8.58199L0 7.00023ZM6.86129 10.8365L4.19657 8.11741L2.64368 9.69754L2.64585 9.69975L6.86129 14L11.0767 9.69754L11.0778 9.69644L9.52709 8.11631L6.86129 10.8365ZM10.6195 7.00068L12.1697 5.41892L13.7198 7.00068L12.1697 8.58245L10.6195 7.00068ZM6.86124 5.3939L8.43363 6.99946H8.43472L8.43363 7.00056L6.86124 8.60612L5.28885 7.00277L5.28669 6.99946L5.28885 6.99725L5.5641 6.71638L5.69848 6.58037L6.86124 5.3939Z" />
</svg>
