<svg width="25" height="24" viewBox="0 0 25 24" xmlns="http://www.w3.org/2000/svg">
<path fill-rule="evenodd" clip-rule="evenodd" d="M22.5062 1.19995H3.3062C2.6462 1.19995 2.1062 1.73995 2.1062 2.39995V9.59995C2.1062 10.26 2.6462 10.8 3.3062 10.8H22.5062C23.1662 10.8 23.7062 10.26 23.7062 9.59995V2.39995C23.7062 1.73995 23.1662 1.19995 22.5062 1.19995ZM21.3062 8.39995H4.5062V3.59995H21.3062V8.39995ZM22.5062 13.2H3.3062C2.6462 13.2 2.1062 13.74 2.1062 14.4V21.6C2.1062 22.26 2.6462 22.7999 3.3062 22.7999H22.5062C23.1662 22.7999 23.7062 22.26 23.7062 21.6V14.4C23.7062 13.74 23.1662 13.2 22.5062 13.2ZM21.3062 20.4H4.5062V15.6H21.3062V20.4Z" />
</svg>
