<svg width="14" height="14" viewBox="0 0 14 14" xmlns="http://www.w3.org/2000/svg">
<path d="M7.45636 8.55071L4.62878 7.60585L7.45636 6.19205L10.2839 7.60585L7.45636 8.55071ZM7.45636 9.62855C7.39913 9.62952 7.34221 9.62003 7.28839 9.60055L4.36212 8.6249C4.32017 8.61078 4.27483 8.61028 4.23259 8.62347C4.19034 8.63666 4.15334 8.66286 4.12687 8.69833C4.10041 8.7338 4.08582 8.77673 4.08521 8.82099C4.08459 8.86524 4.09798 8.90856 4.12345 8.94475L6.98743 13.051C7.03972 13.1271 7.10973 13.1893 7.19143 13.2323C7.27312 13.2753 7.36405 13.2978 7.45636 13.2978C7.54868 13.2978 7.6396 13.2753 7.7213 13.2323C7.80299 13.1893 7.87301 13.1271 7.92529 13.051L10.7893 8.94475C10.8147 8.90856 10.8281 8.86524 10.8275 8.82099C10.8269 8.77673 10.8123 8.7338 10.7859 8.69833C10.7594 8.66286 10.7224 8.63666 10.6801 8.62347C10.6379 8.61028 10.5926 8.61078 10.5506 8.6249L7.62434 9.60055C7.57052 9.62003 7.51359 9.62952 7.45636 9.62855ZM7.69433 5.13521L10.6059 6.59029C10.646 6.61115 10.6918 6.6185 10.7364 6.61125C10.781 6.60401 10.8221 6.58255 10.8536 6.55008C10.885 6.5176 10.9052 6.47584 10.911 6.43101C10.9168 6.38617 10.908 6.34066 10.8859 6.30124L7.96029 0.991814C7.90986 0.902565 7.83663 0.828312 7.74809 0.776645C7.65955 0.724979 7.55887 0.697754 7.45636 0.697754C7.35385 0.697754 7.25318 0.724979 7.16464 0.776645C7.0761 0.828312 7.00287 0.902565 6.95244 0.991814L4.02687 6.30124C4.00474 6.34066 3.99593 6.38617 4.00174 6.43101C4.00756 6.47584 4.02769 6.5176 4.05914 6.55008C4.0906 6.58255 4.13169 6.60401 4.17632 6.61125C4.22094 6.6185 4.26671 6.61115 4.30682 6.59029L7.2184 5.13521C7.29296 5.10062 7.37417 5.0827 7.45636 5.0827C7.53856 5.0827 7.61976 5.10062 7.69433 5.13521Z" />
</svg>
